HIERARCHY
ROOT Hips
{
	OFFSET -0.001795 -0.223333 0.028219
	CHANNELS 6 Xposition Yposition Zposition Zrotation Yrotation Xrotation 
	JOINT LeftUpLeg
	{
		OFFSET 0.069520 -0.091406 -0.006815
		CHANNELS 3 Zrotation Yrotation Xrotation
		JOINT LeftLeg
		{
			OFFSET 0.034277 -0.375199 -0.004496
			CHANNELS 3 Zrotation Yrotation Xrotation
			JOINT LeftFoot
			{
				OFFSET -0.013596 -0.397961 -0.043693
				CHANNELS 3 Zrotation Yrotation Xrotation
				JOINT LeftToe
				{
					OFFSET 0.026358 -0.055791 0.119288
					CHANNELS 3 Zrotation Yrotation Xrotation
					End Site
					{
						OFFSET 0.000000 0.000000 0.000000
					}
				}
			}
		}
	}
	JOINT RightUpLeg
	{
		OFFSET -0.067670 -0.090522 -0.004320
		CHANNELS 3 Zrotation Yrotation Xrotation
		JOINT RightLeg
		{
			OFFSET -0.038290 -0.382569 -0.008850
			CHANNELS 3 Zrotation Yrotation Xrotation
			JOINT RightFoot
			{
				OFFSET 0.015774 -0.398415 -0.042312
				CHANNELS 3 Zrotation Yrotation Xrotation
				JOINT RightToe
				{
					OFFSET -0.025372 -0.048144 0.123348
					CHANNELS 3 Zrotation Yrotation Xrotation
					End Site
					{
						OFFSET 0.000000 0.000000 0.000000
					}
				}
			}
		}
	}
	JOINT Spine
	{
		OFFSET -0.002533 0.108963 -0.026696
		CHANNELS 3 Zrotation Yrotation Xrotation
		JOINT Spine1
		{
			OFFSET 0.005487 0.135180 0.001092
			CHANNELS 3 Zrotation Yrotation Xrotation
			JOINT Spine2
			{
				OFFSET 0.001457 0.052922 0.025425
				CHANNELS 3 Zrotation Yrotation Xrotation
				JOINT Neck
				{
					OFFSET -0.002778 0.213870 -0.042857
					CHANNELS 3 Zrotation Yrotation Xrotation
					JOINT Head
					{
						OFFSET 0.005152 0.064970 0.051349
						CHANNELS 3 Zrotation Yrotation Xrotation
						End Site
						{
							OFFSET 0.000000 0.000000 0.000000
						}
					}
				}
				JOINT LeftShoulder
				{
					OFFSET 0.078845 0.121749 -0.034090
					CHANNELS 3 Zrotation Yrotation Xrotation
					JOINT LeftArm
					{
						OFFSET 0.090977 0.030469 -0.008868
						CHANNELS 3 Zrotation Yrotation Xrotation
						JOINT LeftForeArm
						{
							OFFSET 0.259612 -0.012772 -0.027456
							CHANNELS 3 Zrotation Yrotation Xrotation
							JOINT LeftHand
							{
								OFFSET 0.249234 0.008986 -0.001171
								CHANNELS 3 Zrotation Yrotation Xrotation
								End Site
								{
									OFFSET 0.000000 0.000000 0.000000
								}
							}
						}
					}
				}
				JOINT RightShoulder
				{
					OFFSET -0.081759 0.118833 -0.038615
					CHANNELS 3 Zrotation Yrotation Xrotation
					JOINT RightArm
					{
						OFFSET -0.096012 0.032551 -0.009143
						CHANNELS 3 Zrotation Yrotation Xrotation
						JOINT RightForeArm
						{
							OFFSET -0.253742 -0.013329 -0.021401
							CHANNELS 3 Zrotation Yrotation Xrotation
							JOINT RightHand
							{
								OFFSET -0.255298 0.007772 -0.005559
								CHANNELS 3 Zrotation Yrotation Xrotation
								End Site
								{
									OFFSET 0.000000 0.000000 0.000000
								}
							}
						}
					}
				}
			}
		}
	}
}
MOTION
Frames: 5
Frame Time: 0.050000
0.000000 0.940580 0.000000 -4.988595 -14.383028 11.142821 6.358481 -0.327105 -12.300608 2.442961 0.041173 -6.162411 -4.669870 -5.800506 10.009622 0.000000 0.000000 0.000000 -0.783331 1.182377 -11.552709 5.054673 -0.292521 -3.445291 -6.961395 -18.753183 9.983881 0.000000 0.000000 0.000000 -6.835565 0.837014 12.262144 -6.340103 3.563117 5.746487 0.981004 1.558807 3.650602 -5.826994 3.958595 -20.487203 0.000000 0.000000 0.000000 -28.948916 -28.458546 18.781845 -32.216280 -26.810506 2.250125 3.514655 -40.252916 0.611077 0.000000 0.000000 0.000000 23.425498 38.659481 20.429705 32.486789 24.727529 3.323662 -11.583665 49.186502 -3.688225 0.000000 0.000000 0.000000 
0.000730 0.939186 0.000945 -5.165702 -15.964264 11.560567 7.611018 -0.147646 -10.969664 0.791643 0.289466 -8.467537 -6.248745 -7.908533 11.875887 0.000000 0.000000 0.000000 0.226505 1.254803 -11.915074 3.230002 -0.223409 -3.806861 -7.140176 -19.293327 10.722960 0.000000 0.000000 0.000000 -7.247273 0.911298 11.531983 -5.658805 3.204442 5.407903 -0.124299 1.870560 4.385118 -6.349143 4.178447 -22.512752 0.000000 0.000000 0.000000 -29.437144 -27.065979 18.107384 -33.030754 -26.360446 2.117207 4.468778 -43.275633 0.391165 0.000000 0.000000 0.000000 22.005802 39.066967 20.210675 29.761061 26.966444 3.336455 -12.692247 48.731333 -4.134127 0.000000 0.000000 0.000000 
0.001478 0.939546 0.001389 -5.188277 -14.826516 11.681113 8.488366 -0.080731 -11.840242 0.393527 0.235781 -7.063999 -6.827966 -9.192812 10.831880 0.000000 0.000000 0.000000 0.829156 1.321701 -12.305379 2.588778 -0.213702 -3.441482 -8.227162 -21.117757 11.097473 0.000000 0.000000 0.000000 -6.018645 0.632999 10.457419 -6.331834 3.622391 6.194929 -0.827460 2.317355 3.367863 -4.748405 3.491146 -17.602162 0.000000 0.000000 0.000000 -30.385124 -29.405248 19.554833 -31.345866 -24.676358 1.662663 1.627226 -42.585930 1.354443 0.000000 0.000000 0.000000 21.382800 39.354544 20.634167 26.584637 25.980471 2.572092 -14.018084 46.081355 -4.308252 0.000000 0.000000 0.000000 
0.001883 0.938829 0.001489 -5.489080 -15.526412 12.000656 9.006248 -0.005056 -11.678575 0.186345 0.318332 -8.362284 -8.274032 -11.297120 11.656731 0.000000 0.000000 0.000000 1.393986 1.382414 -12.615067 2.059976 -0.197013 -3.935314 -9.690652 -23.513810 10.985055 0.000000 0.000000 0.000000 -6.223556 0.648229 9.583303 -6.638869 3.798453 6.090680 -1.356294 2.499127 3.889213 -4.770772 3.496444 -18.809953 0.000000 0.000000 0.000000 -28.940986 -29.568865 19.245196 -33.059310 -25.181402 1.998137 1.506050 -43.044922 1.434967 0.000000 0.000000 0.000000 20.104407 40.650883 21.063151 23.504492 26.638783 2.141631 -17.569887 43.077109 -5.309366 0.000000 0.000000 0.000000 
0.002184 0.939102 0.001465 -5.347856 -15.723624 11.582385 9.050944 0.014359 -11.562243 -0.277896 0.316206 -7.749426 -7.931403 -10.948833 11.194145 0.000000 0.000000 0.000000 1.549794 1.383989 -12.574596 0.871320 -0.145777 -3.233318 -9.103611 -22.543301 10.702170 0.000000 0.000000 0.000000 -5.972295 0.596310 9.426267 -7.509674 4.295570 6.141455 -1.492260 2.618352 3.611980 -3.883720 3.010186 -18.083461 0.000000 0.000000 0.000000 -27.809950 -30.099575 19.212040 -34.755437 -24.935462 2.186696 2.756632 -42.372318 0.930266 0.000000 0.000000 0.000000 18.285335 40.547693 20.391744 20.125363 27.731499 1.720201 -18.138094 39.564182 -4.992560 0.000000 0.000000 0.000000 
